<svg width="13" height="13" viewBox="0 0 13 13" fill="none" xmlns="http://www.w3.org/2000/svg">
<path d="M0.695312 7.14062C0.320312 7.14062 0 6.82812 0 6.44531C0 6.0625 0.320312 5.74219 0.695312 5.74219H5.75V0.695312C5.75 0.320312 6.0625 0 6.44531 0C6.82812 0 7.14844 0.320312 7.14844 0.695312V5.74219H12.1953C12.5703 5.74219 12.8906 6.0625 12.8906 6.44531C12.8906 6.82812 12.5703 7.14062 12.1953 7.14062H7.14844V12.1953C7.14844 12.5703 6.82812 12.8906 6.44531 12.8906C6.0625 12.8906 5.75 12.5703 5.75 12.1953V7.14062H0.695312Z" fill="black"/>
</svg>
