<svg width="14" height="18" viewBox="0 0 14 18" fill="none" xmlns="http://www.w3.org/2000/svg">
<path d="M6.92969 11.4297C6.59375 11.4297 6.3125 11.1562 6.3125 10.8281V2.875L6.36719 1.69531L5.92188 2.17188L4.71094 3.46094C4.60156 3.58594 4.42969 3.64844 4.28125 3.64844C3.95312 3.64844 3.71875 3.41406 3.71875 3.10156C3.71875 2.92969 3.78906 2.80469 3.90625 2.6875L6.47656 0.203125C6.64062 0.046875 6.77344 0 6.92969 0C7.09375 0 7.22656 0.046875 7.38281 0.203125L9.96094 2.6875C10.0781 2.80469 10.1406 2.92969 10.1406 3.10156C10.1406 3.41406 9.89844 3.64844 9.57031 3.64844C9.42188 3.64844 9.25781 3.58594 9.14844 3.46094L7.94531 2.17188L7.5 1.70312L7.55469 2.875V10.8281C7.55469 11.1562 7.26562 11.4297 6.92969 11.4297ZM3.26562 17.5469C1.16406 17.5469 0 16.375 0 14.2812V8.26562C0 6.16406 1.16406 5 3.26562 5H4.84375V6.25781H3.26562C1.98438 6.25781 1.25781 6.97656 1.25781 8.26562V14.2812C1.25781 15.5703 1.98438 16.2891 3.26562 16.2891H10.5938C11.8828 16.2891 12.6094 15.5703 12.6094 14.2812V8.26562C12.6094 6.97656 11.8828 6.25781 10.5938 6.25781H9.01562V5H10.5938C12.6953 5 13.8672 6.16406 13.8672 8.26562V14.2812C13.8672 16.375 12.6953 17.5469 10.5938 17.5469H3.26562Z" fill="black"/>
</svg>
