<svg width="19" height="19" viewBox="0 0 19 19" fill="none" xmlns="http://www.w3.org/2000/svg">
<path d="M7.50977 15.0195C3.37891 15.0195 0 11.6406 0 7.50977C0 3.36914 3.38867 0 7.50977 0C11.6406 0 15.0195 3.37891 15.0195 7.50977C15.0195 9.21875 14.4434 10.791 13.4766 12.0605L18.0762 16.6699C18.291 16.875 18.3887 17.1582 18.3887 17.4512C18.3887 18.0762 17.9395 18.5645 17.3047 18.5645C17.002 18.5645 16.7188 18.457 16.5039 18.2422L11.875 13.6133C10.6445 14.4922 9.14062 15.0195 7.50977 15.0195ZM7.50977 13.3984C10.7324 13.3984 13.3984 10.7324 13.3984 7.50977C13.3984 4.28711 10.7324 1.62109 7.50977 1.62109C4.28711 1.62109 1.62109 4.28711 1.62109 7.50977C1.62109 10.7324 4.28711 13.3984 7.50977 13.3984Z" fill="#616161"/>
</svg>
