<svg width="34" height="30" viewBox="0 0 34 30" fill="none" xmlns="http://www.w3.org/2000/svg">
<path d="M21.9531 18.6719C23.2552 17.3177 24.8177 16.6406 26.6406 16.6406C28.4635 16.6406 30.026 17.3177 31.3281 18.6719C32.6302 19.974 33.2812 21.5365 33.2812 23.3594C33.2812 25.1823 32.6302 26.7448 31.3281 28.0469C30.026 29.349 28.4635 30 26.6406 30C24.8177 30 23.2552 29.349 21.9531 28.0469C20.651 26.7448 20 25.1823 20 23.3594C20 21.5365 20.651 19.974 21.9531 18.6719ZM11.9531 1.95312C13.2552 0.651042 14.8177 0 16.6406 0C18.4635 0 20.026 0.651042 21.3281 1.95312C22.6302 3.25521 23.2812 4.81771 23.2812 6.64062C23.2812 8.46354 22.6302 10.0521 21.3281 11.4062C20.026 12.7083 18.4635 13.3594 16.6406 13.3594C14.8177 13.3594 13.2552 12.7083 11.9531 11.4062C10.651 10.0521 10 8.46354 10 6.64062C10 4.81771 10.651 3.25521 11.9531 1.95312ZM1.95312 18.6719C3.25521 17.3177 4.81771 16.6406 6.64062 16.6406C8.46354 16.6406 10.026 17.3177 11.3281 18.6719C12.6302 19.974 13.2812 21.5365 13.2812 23.3594C13.2812 25.1823 12.6302 26.7448 11.3281 28.0469C10.026 29.349 8.46354 30 6.64062 30C4.81771 30 3.25521 29.349 1.95312 28.0469C0.651042 26.7448 0 25.1823 0 23.3594C0 21.5365 0.651042 19.974 1.95312 18.6719Z" fill="black"/>
</svg>
