<svg width="16" height="15" viewBox="0 0 16 15" fill="none" xmlns="http://www.w3.org/2000/svg">
<path d="M15.5859 1.36719C15.7422 1.52344 15.8203 1.71875 15.8203 1.95312C15.8203 2.1875 15.7422 2.38281 15.5859 2.53906L8.125 10L5.82031 7.69531L13.2812 0.234375C13.4375 0.078125 13.6328 0 13.8672 0C14.1016 0 14.2969 0.078125 14.4531 0.234375L15.5859 1.36719ZM2.38281 9.92188C2.8776 9.42708 3.46354 9.17969 4.14062 9.17969C4.81771 9.17969 5.40365 9.42708 5.89844 9.92188C6.39323 10.4167 6.64062 11.0026 6.64062 11.6797C6.64062 12.5911 6.3151 13.3724 5.66406 14.0234C5.01302 14.6745 4.23177 15 3.32031 15C1.96615 15 0.859375 14.4401 0 13.3203C0.390625 13.3203 0.755208 13.1771 1.09375 12.8906C1.45833 12.5781 1.64062 12.1745 1.64062 11.6797C1.64062 11.0026 1.88802 10.4167 2.38281 9.92188Z" fill="black"/>
</svg>
