<svg width="21" height="20" viewBox="0 0 21 20" fill="none" xmlns="http://www.w3.org/2000/svg">
<path d="M0 8.71094C0 3.55469 5.60547 0 11.0254 0C15.9766 0 20.127 3.23242 20.127 7.88086C20.127 10.293 18.7598 12.4902 16.7969 13.9844C16.9141 14.3848 16.9824 14.8047 16.9824 15.2539C16.9824 16.9434 16.0449 18.5742 14.5508 19.5508C14.3555 19.668 14.2285 19.7266 14.0234 19.7266C13.5547 19.7266 13.2617 19.4141 13.2617 19.0527C13.2617 18.7012 13.4766 18.4961 13.7598 18.291C14.8438 17.5977 15.5078 16.4551 15.5078 15.2832C15.5078 15.127 15.498 14.9707 15.4785 14.8242C14.1504 15.5273 12.6758 15.9375 11.2012 15.9375C10.6738 15.9375 10.1953 15.8496 9.80469 15.6738C9.42383 15.7031 9.0332 15.7129 8.65234 15.7129C3.84766 15.7129 0 13.1934 0 8.71094ZM1.47461 8.7207C1.47461 12.3633 4.67773 14.1992 8.56445 14.248C8.53516 14.1016 8.51562 13.9453 8.51562 13.7793C8.51562 12.0508 10.1953 10.8789 12.4414 10.8789C13.9648 10.8789 15.3027 11.5625 16.123 12.6465C17.6172 11.4258 18.6523 9.7168 18.6523 7.87109C18.6523 4.01367 15.127 1.47461 11.0352 1.47461C6.35742 1.47461 1.47461 4.46289 1.47461 8.7207ZM10 13.7305C10 14.1992 10.5078 14.4727 11.2012 14.4727C12.4707 14.4727 13.7598 14.1016 14.9023 13.4668C14.375 12.7832 13.5254 12.3633 12.5488 12.3633C11.1328 12.3633 10 12.9102 10 13.7305Z" fill="black"/>
</svg>
