<svg width="48" height="48" viewBox="0 0 48 48" fill="none" xmlns="http://www.w3.org/2000/svg">
<g filter="url(#filter0_d_750_3615)">
<path d="M19.1924 37.6135L5.16082 3.77441C4.47885 2.12973 6.12425 0.480792 7.77039 1.15923L41.2093 14.9407C42.9215 15.6463 42.8378 18.0992 41.0816 18.6865L28.6877 22.8314C28.0925 23.0304 27.6253 23.4973 27.4258 24.0924L22.9362 37.4832C22.3484 39.2362 19.9006 39.3214 19.1924 37.6135Z" fill="#EEEEEE"/>
<path d="M19.1924 37.6135L5.16082 3.77441C4.47885 2.12973 6.12425 0.480792 7.77039 1.15923L41.2093 14.9407C42.9215 15.6463 42.8378 18.0992 41.0816 18.6865L28.6877 22.8314C28.0925 23.0304 27.6253 23.4973 27.4258 24.0924L22.9362 37.4832C22.3484 39.2362 19.9006 39.3214 19.1924 37.6135Z" stroke="#A1A1A1" stroke-width="2" stroke-linecap="round"/>
</g>
<defs>
<filter id="filter0_d_750_3615" x="0" y="0" width="47.4473" height="47.8475" filterUnits="userSpaceOnUse" color-interpolation-filters="sRGB">
<feFlood flood-opacity="0" result="BackgroundImageFix"/>
<feColorMatrix in="SourceAlpha" type="matrix" values="0 0 0 0 0 0 0 0 0 0 0 0 0 0 0 0 0 0 127 0" result="hardAlpha"/>
<feOffset dy="4"/>
<feGaussianBlur stdDeviation="2"/>
<feComposite in2="hardAlpha" operator="out"/>
<feColorMatrix type="matrix" values="0 0 0 0 0 0 0 0 0 0 0 0 0 0 0 0 0 0 0.25 0"/>
<feBlend mode="normal" in2="BackgroundImageFix" result="effect1_dropShadow_750_3615"/>
<feBlend mode="normal" in="SourceGraphic" in2="effect1_dropShadow_750_3615" result="shape"/>
</filter>
</defs>
</svg>
