<svg width="112" height="189" viewBox="0 0 112 189" fill="none" xmlns="http://www.w3.org/2000/svg">
<rect x="32" y="132" width="48" height="48" rx="8" fill="#979797"/>
<path d="M56 169.492C49.4727 169.492 44.0469 164.066 44.0469 157.539C44.0469 151 49.4609 145.586 55.9883 145.586C62.5273 145.586 67.9531 151 67.9531 157.539C67.9531 164.066 62.5391 169.492 56 169.492ZM56 167.5C61.5312 167.5 65.9727 163.07 65.9609 157.539C65.9492 152.008 61.5195 147.578 55.9883 147.578C50.457 147.578 46.0508 152.008 46.0508 157.539C46.0508 163.07 50.4688 167.5 56 167.5ZM49.8711 158.805C49.4023 158.805 49.0508 158.453 49.0508 157.984C49.0508 157.527 49.4023 157.176 49.8711 157.176H55.1797V150.086C55.1797 149.629 55.5312 149.277 55.9883 149.277C56.4453 149.277 56.8086 149.629 56.8086 150.086V157.984C56.8086 158.453 56.4453 158.805 55.9883 158.805H49.8711Z" fill="white"/>
<rect x="32.5" y="10" width="48" height="48" rx="8" fill="#979797"/>
<path d="M44.9922 29.5352C44.2539 29.5352 43.9844 29.2656 43.9844 28.5273V26.582C43.9844 25.832 44.2539 25.5625 44.9922 25.5625H46.9375C47.6875 25.5625 47.957 25.832 47.957 26.582V28.5273C47.957 29.2656 47.6875 29.5352 46.9375 29.5352H44.9922ZM52 29.5352C51.25 29.5352 50.9805 29.2656 50.9805 28.5273V26.582C50.9805 25.832 51.25 25.5625 52 25.5625H53.9453C54.6836 25.5625 54.9531 25.832 54.9531 26.582V28.5273C54.9531 29.2656 54.6836 29.5352 53.9453 29.5352H52ZM58.9961 29.5352C58.2578 29.5352 57.9883 29.2656 57.9883 28.5273V26.582C57.9883 25.832 58.2578 25.5625 58.9961 25.5625H60.9414C61.6797 25.5625 61.9492 25.832 61.9492 26.582V28.5273C61.9492 29.2656 61.6797 29.5352 60.9414 29.5352H58.9961ZM65.9922 29.5352C65.2539 29.5352 64.9844 29.2656 64.9844 28.5273V26.582C64.9844 25.832 65.2539 25.5625 65.9922 25.5625H67.9375C68.6875 25.5625 68.957 25.832 68.957 26.582V28.5273C68.957 29.2656 68.6875 29.5352 67.9375 29.5352H65.9922ZM45.0508 36.5312C44.3125 36.5312 44.043 36.2617 44.043 35.5234V33.5781C44.043 32.8398 44.3125 32.5703 45.0508 32.5703H46.9961C47.7461 32.5703 48.0156 32.8398 48.0156 33.5781V35.5234C48.0156 36.2617 47.7461 36.5312 46.9961 36.5312H45.0508ZM52.0586 36.5312C51.3086 36.5312 51.0391 36.2617 51.0391 35.5234V33.5781C51.0391 32.8398 51.3086 32.5703 52.0586 32.5703H54.0039C54.7422 32.5703 55.0117 32.8398 55.0117 33.5781V35.5234C55.0117 36.2617 54.7422 36.5312 54.0039 36.5312H52.0586ZM59.0547 36.5312C58.3164 36.5312 58.0469 36.2617 58.0469 35.5234V33.5781C58.0469 32.8398 58.3164 32.5703 59.0547 32.5703H61C61.7383 32.5703 62.0078 32.8398 62.0078 33.5781V35.5234C62.0078 36.2617 61.7383 36.5312 61 36.5312H59.0547ZM66.0625 36.5312C65.3125 36.5312 65.043 36.2617 65.043 35.5234V33.5781C65.043 32.8398 65.3125 32.5703 66.0625 32.5703H67.9961C68.7461 32.5703 69.0156 32.8398 69.0156 33.5781V35.5234C69.0156 36.2617 68.7461 36.5312 67.9961 36.5312H66.0625ZM45.0508 43.5391C44.3125 43.5391 44.043 43.2695 44.043 42.5195V40.5859C44.043 39.8359 44.3125 39.5664 45.0508 39.5664H46.9961C47.7461 39.5664 48.0156 39.8359 48.0156 40.5859V42.5195C48.0156 43.2695 47.7461 43.5391 46.9961 43.5391H45.0508ZM52.0586 43.5391C51.3086 43.5391 51.0391 43.2695 51.0391 42.5195V40.5859C51.0391 39.8359 51.3086 39.5664 52.0586 39.5664H54.0039C54.7422 39.5664 55.0117 39.8359 55.0117 40.5859V42.5195C55.0117 43.2695 54.7422 43.5391 54.0039 43.5391H52.0586ZM59.0547 43.5391C58.3164 43.5391 58.0469 43.2695 58.0469 42.5195V40.5859C58.0469 39.8359 58.3164 39.5664 59.0547 39.5664H61C61.7383 39.5664 62.0078 39.8359 62.0078 40.5859V42.5195C62.0078 43.2695 61.7383 43.5391 61 43.5391H59.0547ZM66.0625 43.5391C65.3125 43.5391 65.043 43.2695 65.043 42.5195V40.5859C65.043 39.8359 65.3125 39.5664 66.0625 39.5664H67.9961C68.7461 39.5664 69.0156 39.8359 69.0156 40.5859V42.5195C69.0156 43.2695 68.7461 43.5391 67.9961 43.5391H66.0625Z" fill="white"/>
<rect x="32.5" y="71" width="48" height="48" rx="8" fill="black"/>
<path d="M52.1875 91.7539C50.0195 91.7539 48.2734 90.0078 48.2734 87.8398C48.2734 85.6719 50.0195 83.9258 52.1875 83.9258C54.3555 83.9258 56.1016 85.6719 56.1016 87.8398C56.1016 90.0078 54.3555 91.7539 52.1875 91.7539ZM60.8008 91.7539C58.6328 91.7539 56.8867 90.0078 56.8867 87.8398C56.8867 85.6719 58.6328 83.9258 60.8008 83.9258C62.9688 83.9258 64.7148 85.6719 64.7148 87.8398C64.7148 90.0078 62.9688 91.7539 60.8008 91.7539ZM56.5 99.4531C54.332 99.4531 52.5742 97.707 52.5742 95.5391C52.5742 93.3711 54.332 91.625 56.5 91.625C58.6562 91.625 60.4141 93.3711 60.4141 95.5391C60.4141 97.707 58.6562 99.4531 56.5 99.4531ZM47.8867 99.4531C45.7305 99.4531 43.9727 97.707 43.9727 95.5391C43.9727 93.3711 45.7305 91.625 47.8867 91.625C50.0547 91.625 51.8125 93.3711 51.8125 95.5391C51.8125 97.707 50.0547 99.4531 47.8867 99.4531ZM65.1016 99.4531C62.9336 99.4531 61.1758 97.707 61.1758 95.5391C61.1758 93.3711 62.9336 91.625 65.1016 91.625C67.2695 91.625 69.0156 93.3711 69.0156 95.5391C69.0156 97.707 67.2695 99.4531 65.1016 99.4531ZM52.1875 107.164C50.0195 107.164 48.2734 105.406 48.2734 103.25C48.2734 101.082 50.0195 99.3242 52.1875 99.3242C54.3555 99.3242 56.1016 101.082 56.1016 103.25C56.1016 105.406 54.3555 107.164 52.1875 107.164ZM60.8008 107.164C58.6328 107.164 56.8867 105.406 56.8867 103.25C56.8867 101.082 58.6328 99.3242 60.8008 99.3242C62.9688 99.3242 64.7148 101.082 64.7148 103.25C64.7148 105.406 62.9688 107.164 60.8008 107.164Z" fill="white"/>
</svg>
