<svg width="35" height="35" viewBox="0 0 35 35" fill="none" xmlns="http://www.w3.org/2000/svg">
<g clip-path="url(#clip0_1103_666)">
<g filter="url(#filter0_di_1103_666)">
<path d="M16.7125 31.7121C25.0624 31.7121 31.8313 24.9432 31.8313 16.5934C31.8313 8.2435 25.0624 1.47461 16.7125 1.47461C8.36265 1.47461 1.59375 8.2435 1.59375 16.5934C1.59375 24.9432 8.36265 31.7121 16.7125 31.7121Z" fill="white"/>
<g opacity="0.55">
<path d="M16.7125 31.7121C25.0624 31.7121 31.8313 24.9432 31.8313 16.5934C31.8313 8.2435 25.0624 1.47461 16.7125 1.47461C8.36265 1.47461 1.59375 8.2435 1.59375 16.5934C1.59375 24.9432 8.36265 31.7121 16.7125 31.7121Z" fill="#F1F1F1"/>
</g>
<path d="M14.4 22.0811C14.1937 22.0811 13.9875 21.9998 13.8375 21.8436L9.19374 17.1623C8.88749 16.8498 8.88749 16.3498 9.19374 16.0373C9.50624 15.7311 10.0062 15.7311 10.3187 16.0373L12.9687 18.7123C13.8062 19.5561 15.15 19.6248 16.075 18.8686L24 12.3686C24.3375 12.0873 24.8437 12.1373 25.1187 12.4811C25.4 12.8186 25.35 13.3248 25.0062 13.5998L14.9 21.8936C14.75 22.0123 14.575 22.0748 14.3937 22.0748L14.4 22.0811Z" fill="#9FA0A0"/>
</g>
</g>
<defs>
<filter id="filter0_di_1103_666" x="0.46375" y="0.344609" width="34.7575" height="34.7573" filterUnits="userSpaceOnUse" color-interpolation-filters="sRGB">
<feFlood flood-opacity="0" result="BackgroundImageFix"/>
<feColorMatrix in="SourceAlpha" type="matrix" values="0 0 0 0 0 0 0 0 0 0 0 0 0 0 0 0 0 0 127 0" result="hardAlpha"/>
<feOffset dx="1.13" dy="1.13"/>
<feGaussianBlur stdDeviation="1.13"/>
<feColorMatrix type="matrix" values="0 0 0 0 0.74902 0 0 0 0 0.74902 0 0 0 0 0.74902 0 0 0 0.25 0"/>
<feBlend mode="normal" in2="BackgroundImageFix" result="effect1_dropShadow_1103_666"/>
<feBlend mode="normal" in="SourceGraphic" in2="effect1_dropShadow_1103_666" result="shape"/>
<feColorMatrix in="SourceAlpha" type="matrix" values="0 0 0 0 0 0 0 0 0 0 0 0 0 0 0 0 0 0 127 0" result="hardAlpha"/>
<feOffset/>
<feGaussianBlur stdDeviation="4.2"/>
<feComposite in2="hardAlpha" operator="arithmetic" k2="-1" k3="1"/>
<feColorMatrix type="matrix" values="0 0 0 0 0 0 0 0 0 0 0 0 0 0 0 0 0 0 0.1 0"/>
<feBlend mode="normal" in2="shape" result="effect2_innerShadow_1103_666"/>
</filter>
<clipPath id="clip0_1103_666">
<rect width="35" height="35" fill="white"/>
</clipPath>
</defs>
</svg>
